# xmcd
#
# Track frame offsets: 
#        150
#        17866
#        34861
#        56952
#        76570
#        95482
#        112843
#        126889
#        144187
#
# Disc length: 2154 seconds
#
# Revision: 0
# Processed by: cddbd v1.5.2PL0 Copyright (c) Steve Scherf et al.
# Submitted via: ExactAudioCopyFreeDBPlugin 1.0
#
DISCID=6b086809
DTITLE=The Black Snakes - Hang it on the Wall
DYEAR=2014
DGENRE=Blues
TTITLE0=Swamp Thing
TTITLE1=San Francisco Bay Blues
TTITLE2=Come On In
TTITLE3=Hang It On The Wall
TTITLE4=Mighty Tight Woman
TTITLE5=LittleSnake Blues
TTITLE6=Jack I'm Mellow
TTITLE7=Lie Me Again
TTITLE8=Kissin' In The Dark (Bonus Track)
EXTD=
EXTT0=
EXTT1=
EXTT2=
EXTT3=
EXTT4=
EXTT5=
EXTT6=
EXTT7=
EXTT8=
PLAYORDER=
